<svg xmlns="http://www.w3.org/2000/svg" version="1.1" xmlns:xlink="http://www.w3.org/1999/xlink" xmlns:svgjs="http://svgjs.dev/svgjs" width="1000" height="310" viewBox="0 0 1000 310"><g transform="matrix(1,0,0,1,-0.6060606060606233,0.6143879673645358)"><svg viewBox="0 0 396 123" data-background-color="#de7c38" preserveAspectRatio="xMidYMid meet" height="310" width="1000" xmlns="http://www.w3.org/2000/svg" xmlns:xlink="http://www.w3.org/1999/xlink"><g id="tight-bounds" transform="matrix(1,0,0,1,0.2400000000000091,-0.24377329027689143)"><svg viewBox="0 0 395.52 123.48754658055381" height="123.48754658055381" width="395.52"><g><svg viewBox="0 0 395.52 123.48754658055381" height="123.48754658055381" width="395.52"><g><svg viewBox="0 0 395.52 123.48754658055381" height="123.48754658055381" width="395.52"><g id="textblocktransform"><svg viewBox="0 0 395.52 123.48754658055381" height="123.48754658055381" width="395.52" id="textblock"><g><svg viewBox="0 0 395.52 72.31188038060715" height="72.31188038060715" width="395.52"><g transform="matrix(1,0,0,1,0,0)"><svg width="395.52" viewBox="2.95 -38.95 220.67000000000002 40.35" height="72.31188038060715" data-palette-color="#2a160c"><path d="M14.75 1.15Q14.45 1.15 14.15 1.05L14.15 1.05Q13.9 1 13.6 1L13.6 1Q12.25-6.65 10.9-11.8 9.55-16.95 7.5-21.5L7.5-21.5 6.45-19.55Q6-18.7 5.95-18.05L5.95-18.05Q5.8-16.55 5.8-15.85L5.8-15.85Q5.8-14.35 5.95-11.25L5.95-11.25Q6.1-8.2 6.1-6.6L6.1-6.6 6.1-2.5Q6.1 0.15 4.4 0.15L4.4 0.15Q2.95 0.15 2.95-2.65L2.95-2.65Q2.95-4.85 3.25-9.4L3.25-9.4Q3.6-13.6 3.6-16.1L3.6-16.1 3.65-20.4 3.65-25.6Q3.65-28.35 3.3-31.35L3.3-31.35Q2.95-34.45 2.95-36.05L2.95-36.05Q2.95-36.7 3.35-37.15 3.75-37.6 4.35-37.6L4.35-37.6Q6.2-37.6 6.2-33.55L6.2-33.55 6-23.3 6.95-25.75Q8.6-29.95 10.35-34.05L10.35-34.05Q11.35-36.3 12.15-37.6L12.15-37.6Q13-38.95 13.5-38.95L13.5-38.95Q14.05-38.95 14.48-38.58 14.9-38.2 14.9-37.65L14.9-37.65Q14.9-37.15 12.2-31.45L12.2-31.45Q9.55-26 9.1-24.2L9.1-24.2 9.1-23.3Q9.85-21.4 13.1-11.13 16.35-0.85 16.35-0.25L16.35-0.25Q16.35 0.35 15.88 0.75 15.4 1.15 14.75 1.15L14.75 1.15ZM29.5 0.9Q26.4 0.9 24.6-1.8L24.6-1.8Q22.65-4.55 21.85-8.55L21.85-8.55Q20.95-12.8 20.7-17.65L20.7-17.65Q20.45-22.05 20.45-27.2L20.45-27.2 20.45-31.35Q20.5-33.1 20.5-35.05L20.5-35.05Q20.1-35.45 20.1-36.05L20.1-36.05Q20.1-36.65 20.55-37.13 21-37.6 21.55-37.6L21.55-37.6Q23.35-37.6 23.35-34.05L23.35-34.05Q23.35-31.75 23.6-25.35L23.6-25.35Q23.85-18.95 23.85-16.65L23.85-16.65Q24.1-16 24.32-14.05 24.55-12.1 24.55-10.85L24.55-10.85Q24.55-9.75 24.9-8.13 25.25-6.5 25.9-4.85L25.9-4.85Q26.55-3.1 27.6-1.98 28.65-0.85 29.8-0.85L29.8-0.85Q30.5-0.85 30.97-1.3 31.45-1.75 31.6-2.6L31.6-2.6Q31.9-4 31.9-5.35L31.9-5.35 31.9-15.1Q31.9-16.95 31.55-19.8L31.55-19.8Q31.25-22.95 31.25-24.55L31.25-24.55 31.25-24.9Q31.25-25.7 31.2-26.35L31.2-26.35 31.15-27.8Q31.15-29.2 31-32.05L31-32.05Q30.8-34.6 30.8-36.35L30.8-36.35Q30.8-36.9 31.37-37.3 31.95-37.7 32.65-37.7L32.65-37.7 33.9-36.55 33.9-35.7Q33.9-35.1 33.7-34.25L33.7-34.25Q33.5-32.85 33.5-32.65L33.5-32.65Q33.5-28.1 34-20.1L34-20.1Q34.45-11.7 34.45-7.05L34.45-7.05Q34.45-4.55 33.95-2.65L33.95-2.65Q33.65-1.5 33.12-0.8 32.6-0.1 31.7 0.4L31.7 0.4Q30.85 0.9 29.5 0.9L29.5 0.9ZM47.74 0.8Q46.34 0.8 45.17 0.15 43.99-0.5 43.14-1.6L43.14-1.6Q42.39-2.65 41.8-4.28 41.2-5.9 40.89-7.65L40.89-7.65Q40.3-10.6 40.09-15.4L40.09-15.4Q40.05-16.55 40.05-19.35L40.05-19.35 40.05-22.5Q40.09-23.85 40.09-25.3L40.09-25.3Q40.09-28.25 40.45-29.95L40.45-29.95Q40.3-30.7 40.3-31.5L40.3-31.5Q40.3-34.5 42.55-36.35 44.8-38.2 48.24-38.2L48.24-38.2Q49.55-38.2 50.64-37.5 51.74-36.8 51.74-35.75L51.74-35.75Q51.74-35.25 51.34-34.95 50.95-34.65 50.34-34.65L50.34-34.65Q49.84-34.65 49.27-34.8 48.7-34.95 48.55-35.25L48.55-35.25 47.89-35.25 47.89-35.35Q46.05-35.35 44.8-34.55L44.8-34.55Q43.89-33.9 43.39-32.4L43.39-32.4Q43.2-31.85 43.09-31 42.99-30.15 42.99-29.45L42.99-29.45Q42.95-29.05 42.95-27.85L42.95-27.85 43.05-26.1 43.09-24.4Q43.09-23.65 42.89-22.65L42.89-22.65Q42.64-21.4 42.64-20.9L42.64-20.9 42.64-19.7Q42.64-17.75 42.8-14.35L42.8-14.35Q42.84-11.5 43.45-8.65L43.45-8.65Q43.89-6 45.14-4.15L45.14-4.15Q46.34-2.25 48.39-2.25L48.39-2.25Q49.24-2.25 50.49-3.15L50.49-3.15Q51.84-4.05 52.39-4.05L52.39-4.05Q53.09-4.05 53.84-3.3L53.84-3.3Q53.84-1.45 52.45-0.45L52.45-0.45Q51.14 0.45 49.34 0.7L49.34 0.7Q48.34 0.8 47.74 0.8L47.74 0.8ZM66.44 0.75Q65.79 0.75 65.47 0.28 65.14-0.2 65.14-0.9L65.14-0.9Q65.14-11.35 64.74-18.55L64.74-18.55Q63.54-18.75 63.04-18.75L63.04-18.75Q60.99-18.75 60.09-18.4L60.09-18.4Q60.09-15.6 60.54-9.95L60.54-9.95Q60.94-3.95 60.94-1.45L60.94-1.45Q60.94-0.95 60.64-0.53 60.34-0.1 59.89-0.1L59.89-0.1Q59.24-0.1 58.69-2.4L58.69-2.4Q57.89-5.8 57.39-16.65L57.39-16.65Q57.04-24 57.04-32.45L57.04-32.45Q56.99-34 56.99-36.85L56.99-36.85Q56.99-37.75 57.84-37.75L57.84-37.75Q58.34-37.75 58.87-37.5 59.39-37.25 59.64-36.95L59.64-36.95Q59.44-35.35 59.44-33.2L59.44-33.2Q59.44-31.1 59.64-28.1L59.64-28.1Q59.79-24.65 59.79-22.9L59.79-22.9 59.79-22Q59.74-21.6 59.74-21.05L59.74-21.05Q59.74-20.55 59.84-19.75L59.84-19.75Q60.14-19.75 60.84-19.8 61.54-19.85 62.24-19.95L62.24-19.95Q63.89-20.1 64.69-20.1L64.69-20.1Q64.69-24.45 64.59-28.15L64.59-28.15 64.49-36.5 64.49-37.85Q65.14-37.85 65.64-37.63 66.14-37.4 66.39-37.05L66.39-37.05Q66.84-36.5 66.94-35.15L66.94-35.15 66.94-34Q66.94-29.7 67.44-17.55L67.44-17.55Q67.89-6.55 67.89-1.05L67.89-1.05Q67.89-0.35 67.47 0.2 67.04 0.75 66.44 0.75L66.44 0.75ZM86.54 0.75Q85.54 0.75 82.44-9.55L82.44-9.55Q78.94-21.6 76.39-31.7L76.39-31.7 76.39-15.3Q76.39-13.2 76.79-8.15L76.79-8.15Q77.14-2.65 77.14-1.05L77.14-1.05Q77.14-0.6 76.59-0.28 76.04 0.05 75.34 0.05L75.34 0.05Q74.29 0.05 74.29-0.75L74.29-0.75 74.39-2.2Q74.49-3.8 74.49-4.3L74.49-4.3Q74.49-6.95 74.19-12.7L74.19-12.7Q73.89-18.55 73.89-19.8L73.89-19.8 73.89-26.2Q73.89-27.75 74.04-30.8L74.04-30.8Q74.24-33.45 74.24-35.4L74.24-35.4 74.24-35.7Q74.24-38.2 75.34-38.2L75.34-38.2Q75.99-38.2 76.99-36L76.99-36Q78.64-32.4 81.19-23.1L81.19-23.1Q82.64-17.7 84.59-9.2L84.59-9.2Q84.54-9.4 85.39-5.75L85.39-5.75 85.44-5.5Q85.44-10.35 85.54-14.2L85.54-14.2 85.64-22.9 85.64-37.7Q85.84-38.95 87.24-38.95L87.24-38.95Q88.59-38.95 88.59-37L88.59-37 88.59-36.7Q88.29-36.1 88.29-35.25L88.29-35.25Q88.29-32.2 88.14-26.05L88.14-26.05Q87.99-19.85 87.99-16.75L87.99-16.75 87.99-1.5Q87.99-0.7 87.56 0.03 87.14 0.75 86.54 0.75L86.54 0.75ZM97.94-0.05Q93.64-0.05 93.64-1.55L93.64-1.55Q93.64-2.75 95.14-2.75L95.14-2.75 95.74-2.75Q95.94-2.7 96.19-2.7L96.19-2.7Q96.59-2.7 96.76-2.95 96.94-3.2 96.94-3.85L96.94-3.85Q96.94-8.1 96.44-15.45L96.44-15.45Q95.99-23.1 95.99-27L95.99-27Q95.99-28.4 96.04-29.55L96.04-29.55 96.09-32.1Q96.09-33.75 95.94-34.85L95.94-34.85Q95.39-34.65 94.79-34.65L94.79-34.65Q93.64-34.65 93.64-35.85L93.64-35.85Q93.64-36.45 94.36-36.9 95.09-37.35 96.24-37.55L96.24-37.55Q98.34-37.9 99.79-37.9L99.79-37.9Q100.39-37.9 100.81-37.5 101.24-37.1 101.24-36.55L101.24-36.55Q101.24-36 100.91-35.6 100.59-35.2 100.09-35.2L100.09-35.2Q99.79-35.2 99.59-35.25L99.59-35.25 99.19-35.25Q98.69-35.25 98.46-35.02 98.24-34.8 98.24-34.2L98.24-34.2Q98.24-28.9 98.89-19.6L98.89-19.6Q99.49-9.85 99.49-4.95L99.49-4.95 99.49-3.05Q99.84-3.1 100.49-3.1L100.49-3.1Q102.59-3.1 102.59-1.35L102.59-1.35 102.59-1.05 101.34-0.2Q101.29-0.2 101.04-0.18 100.79-0.15 100.04-0.15L100.04-0.15Q98.34-0.05 97.94-0.05L97.94-0.05ZM117.53 0Q116.73 0 116.36-0.3 115.98-0.6 115.98-1.3L115.98-1.3 115.98-7.85Q115.33-8.3 113.53-8.65 111.73-9 110.13-9.1L110.13-9.1Q109.58-8.05 109.33-6.55L109.33-6.55 109.13-5.55Q109.08-5.2 108.83-4 108.58-2.8 108.28-1.93 107.98-1.05 107.68-0.55L107.68-0.55Q105.78-0.55 105.48-1.55L105.48-1.55Q106.03-2.35 106.73-6.25L106.73-6.25 108.38-15.4Q109.48-21.9 110.41-26.5 111.33-31.1 112.38-34.2L112.38-34.2Q113.53-37.65 114.58-37.65L114.58-37.65Q115.63-37.65 116.18-37.25L116.18-37.25Q116.18-35.25 117.13-27.6L117.13-27.6Q118.13-20.1 118.13-17.35L118.13-17.35Q118.13-14.7 118.68-9.75L118.68-9.75Q119.18-4.7 119.18-1.7L119.18-1.7Q119.18 0 117.53 0L117.53 0ZM114.93-10.75Q115.33-10.75 115.93-10.9L115.93-10.9Q115.78-13.1 115.43-16.35L115.43-16.35Q114.28-27.65 114.28-30.2L114.28-30.2 114.28-30.6Q113.78-30.1 112.91-26.08 112.03-22.05 111.28-17.45 110.53-12.85 110.48-11.35L110.48-11.35Q112.58-10.75 114.93-10.75L114.93-10.75ZM135.98 0.25Q135.43 0.25 135.1-0.23 134.78-0.7 134.78-1.4L134.78-1.4 134.88-9.8Q135.03-15.9 135.03-19.25L135.03-19.25Q135.03-30.9 133.73-37.1L133.73-37.1Q134.48-38.25 135.63-38.25L135.63-38.25Q137.48-38.25 139-37.43 140.53-36.6 141.53-35.2L141.53-35.2Q143.48-32.3 143.48-28.7L143.48-28.7Q143.48-24.95 141.88-22 140.28-19.05 137.23-17.4L137.23-17.4 137.33-12.35 137.43-9.7Q137.48-8.85 137.48-7.25L137.48-7.25Q137.63-3.9 137.63-1.8L137.63-1.8Q137.63-0.85 137.23-0.3 136.83 0.25 135.98 0.25L135.98 0.25ZM137.13-19.8Q139.08-21.65 140-23.68 140.93-25.7 140.93-28.25L140.93-28.25 140.93-28.3Q140.93-29.45 140.68-31.2L140.68-31.2Q140.53-31.8 140.13-32.4 139.73-33 139.68-33.1L139.68-33.1Q139.33-33.6 137.83-34.65L137.83-34.65 136.53-35.6Q136.53-33.05 136.83-27.7L136.83-27.7 137.13-19.8ZM155.23 1.4Q153.88 1.4 152.78 0.5 151.68-0.4 150.88-1.95L150.88-1.95Q149.43-4.65 148.73-9.35L148.73-9.35Q148.23-12.6 147.98-16.85L147.98-16.85 147.93-19.5 147.93-22.2Q147.88-23.5 147.88-25.35L147.88-25.35Q147.88-28.35 148.13-30.65L148.13-30.65Q148.33-33.05 149.13-35.4L149.13-35.4Q149.93-37.45 151.43-38.3L151.43-38.3Q152.33-38.7 153.23-38.7L153.23-38.7Q155.88-38.7 157.43-36.6L157.43-36.6Q159.13-34.25 159.68-31.35L159.68-31.35Q160.48-27.85 160.58-24.65L160.58-24.65Q160.78-21.1 160.78-17.95L160.78-17.95 160.78-15.1Q160.78-14.25 160.53-11.9L160.53-11.9Q160.33-10.05 160.33-8.75L160.33-8.75 160.33-8.55Q160.03-7.15 160.03-5.25L160.03-5.25Q160.03-3.85 159.43-2.35 158.83-0.85 157.73 0.2L157.73 0.2Q156.63 1.4 155.23 1.4L155.23 1.4ZM155.33-1.35Q156.33-1.35 157.03-3.2L157.03-3.2Q157.63-4.85 157.9-7.23 158.18-9.6 158.38-12.6L158.38-12.6Q158.48-13.9 158.48-15.95L158.48-15.95 158.43-20.55Q158.33-23.25 157.83-27.3L157.83-27.3Q157.43-30.75 156.33-33.4L156.33-33.4Q155.83-34.65 155.08-35.35 154.33-36.05 153.48-36.05L153.48-36.05Q152.23-36.05 151.63-34.1L151.63-34.1Q150.88-32.05 150.63-29.6L150.63-29.6Q150.33-26.95 150.28-24.55L150.28-24.55 150.23-22.9Q150.18-22.2 150.18-21L150.18-21 150.18-20.8Q150.18-17.45 150.88-12.55L150.88-12.55Q151.68-5.9 153.23-3.1L153.23-3.1Q154.23-1.35 155.33-1.35L155.33-1.35ZM168.73 0.55Q168.08 0.55 167.55 0.08 167.03-0.4 167.03-1.05L167.03-1.05Q167.03-1.5 167.23-2.15L167.23-2.15Q167.38-2.85 167.38-3.2L167.38-3.2Q167.38-7.65 166.88-20.3L166.88-20.3Q166.38-31.1 166.38-37.35L166.38-37.35Q166.38-37.8 166.73-38.08 167.08-38.35 167.58-38.35L167.58-38.35Q168.18-38.35 168.63-37.93 169.08-37.5 169.08-36.9L169.08-36.9Q169.08-33.9 169.38-27.9L169.38-27.9Q169.63-21.25 169.63-18.9L169.63-18.9 169.68-18.3 169.68-17.7 169.68-17.35 169.68-17.1Q169.83-12.75 169.83-4.1L169.83-4.1 169.83-2.8 173.68-2.8Q174.73-2.05 174.73-1.3L174.73-1.3Q174.73-0.75 174.35-0.33 173.98 0.1 173.48 0.1L173.48 0.1Q173.33 0.1 172.93 0L172.93 0 172.73-0.05Q172.43 0 171.78 0L171.78 0 170.93 0Q170.58-0.05 170.13-0.05L170.13-0.05Q169.63 0.55 168.73 0.55L168.73 0.55ZM181.77 1.1Q179.97 1.1 178.67 0.45L178.67 0.45Q177.87 0 177.87-0.6L177.87-0.6Q177.87-1.2 178.17-1.58 178.47-1.95 179.02-1.95L179.02-1.95Q179.52-1.95 180.47-1.55L180.47-1.55Q181.52-1.15 181.77-1.15L181.77-1.15Q182.72-1.15 183.5-1.98 184.27-2.8 184.72-4.15L184.72-4.15Q185.62-6.65 185.62-8.65L185.62-8.65Q185.62-10.8 184.95-13.18 184.27-15.55 183.12-17.8L183.12-17.8 182.32-19.4Q181.07-21.9 180.4-23.35 179.72-24.8 179.22-26.5L179.22-26.5Q178.47-28.9 178.47-31.15L178.47-31.15Q178.47-32.95 179.1-34.55 179.72-36.15 180.97-37.25L180.97-37.25Q182.22-38.45 184.07-38.45L184.07-38.45Q184.97-38.45 185.82-37.93 186.67-37.4 187.02-36.6L187.02-36.6 186.17-35.55Q184.87-35.55 184.22-36.05L184.22-36.05Q183.32-35.95 182.65-35.18 181.97-34.4 181.62-33.4L181.62-33.4Q181.32-32.45 181.32-31.5L181.32-31.5Q181.32-29.6 181.85-27.63 182.37-25.65 183.22-23.9L183.22-23.9 186.72-16.9Q187.57-15.1 188.07-12.85 188.57-10.6 188.57-8.35L188.57-8.35Q188.57-5.05 186.97-2.15L186.97-2.15Q186.12-0.65 184.77 0.23 183.42 1.1 181.77 1.1L181.77 1.1ZM206.02 1.15Q205.72 1.15 205.42 1.05L205.42 1.05Q205.17 1 204.87 1L204.87 1Q203.52-6.65 202.17-11.8 200.82-16.95 198.77-21.5L198.77-21.5 197.72-19.55Q197.27-18.7 197.22-18.05L197.22-18.05Q197.07-16.55 197.07-15.85L197.07-15.85Q197.07-14.35 197.22-11.25L197.22-11.25Q197.37-8.2 197.37-6.6L197.37-6.6 197.37-2.5Q197.37 0.15 195.67 0.15L195.67 0.15Q194.22 0.15 194.22-2.65L194.22-2.65Q194.22-4.85 194.52-9.4L194.52-9.4Q194.87-13.6 194.87-16.1L194.87-16.1 194.92-20.4 194.92-25.6Q194.92-28.35 194.57-31.35L194.57-31.35Q194.22-34.45 194.22-36.05L194.22-36.05Q194.22-36.7 194.62-37.15 195.02-37.6 195.62-37.6L195.62-37.6Q197.47-37.6 197.47-33.55L197.47-33.55 197.27-23.3 198.22-25.75Q199.87-29.95 201.62-34.05L201.62-34.05Q202.62-36.3 203.42-37.6L203.42-37.6Q204.27-38.95 204.77-38.95L204.77-38.95Q205.32-38.95 205.75-38.58 206.17-38.2 206.17-37.65L206.17-37.65Q206.17-37.15 203.47-31.45L203.47-31.45Q200.82-26 200.37-24.2L200.37-24.2 200.37-23.3Q201.12-21.4 204.37-11.13 207.62-0.85 207.62-0.25L207.62-0.25Q207.62 0.35 207.15 0.75 206.67 1.15 206.02 1.15L206.02 1.15ZM221.97 0Q221.17 0 220.79-0.3 220.42-0.6 220.42-1.3L220.42-1.3 220.42-7.85Q219.77-8.3 217.97-8.65 216.17-9 214.57-9.1L214.57-9.1Q214.02-8.05 213.77-6.55L213.77-6.55 213.57-5.55Q213.52-5.2 213.27-4 213.02-2.8 212.72-1.93 212.42-1.05 212.12-0.55L212.12-0.55Q210.22-0.55 209.92-1.55L209.92-1.55Q210.47-2.35 211.17-6.25L211.17-6.25 212.82-15.4Q213.92-21.9 214.84-26.5 215.77-31.1 216.82-34.2L216.82-34.2Q217.97-37.65 219.02-37.65L219.02-37.65Q220.07-37.65 220.62-37.25L220.62-37.25Q220.62-35.25 221.57-27.6L221.57-27.6Q222.57-20.1 222.57-17.35L222.57-17.35Q222.57-14.7 223.12-9.75L223.12-9.75Q223.62-4.7 223.62-1.7L223.62-1.7Q223.62 0 221.97 0L221.97 0ZM219.37-10.75Q219.77-10.75 220.37-10.9L220.37-10.9Q220.22-13.1 219.87-16.35L219.87-16.35Q218.72-27.65 218.72-30.2L218.72-30.2 218.72-30.6Q218.22-30.1 217.34-26.08 216.47-22.05 215.72-17.45 214.97-12.85 214.92-11.35L214.92-11.35Q217.02-10.75 219.37-10.75L219.37-10.75Z" opacity="1" transform="matrix(1,0,0,1,0,0)" fill="#2a160c" class="undefined-text-0" data-fill-palette-color="primary" id="text-0"></path></svg></g></svg></g><g transform="matrix(1,0,0,1,0,89.38297985333936)"><svg viewBox="0 0 395.52 34.10456672721445" height="34.10456672721445" width="395.52"><g transform="matrix(1,0,0,1,0,0)"><svg width="395.52" viewBox="3.8 -36 467.89 40.35" height="34.10456672721445" data-palette-color="#bb6b32"><path d="M11.65 4.35L11.65 4.35Q8.9 4.35 7.85 3.28 6.8 2.2 6.75 0.5L6.75 0.5Q6.75-0.95 7.33-2.98 7.9-5 8.5-6.85L8.5-6.85Q9.7-10.4 11-13.85 12.3-17.3 13.63-20.5 14.95-23.7 16.18-26.6 17.4-29.5 18.45-31.95L18.45-31.95Q15.05-31.9 12.58-31.75 10.1-31.6 8.05-31.38 6-31.15 3.8-30.75L3.8-30.75Q4.05-32.85 5.78-33.98 7.5-35.1 10.4-35.55 13.3-36 17.05-36L17.05-36Q19-36 20.73-35.93 22.45-35.85 24.03-35.7 25.6-35.55 27.1-35.4L27.1-35.4Q30.25-35.1 32.13-35 34-34.9 34.8-34.9L34.8-34.9Q33.3-33.5 31.03-32.88 28.75-32.25 26.25-32.1 23.75-31.95 21.5-31.95L21.5-31.95Q19.1-26.05 17.1-19.7 15.1-13.35 13.4-7.15L13.4-7.15Q12.75-4.75 12.33-3.08 11.9-1.4 11.7-0.03 11.5 1.35 11.5 2.9L11.5 2.9Q11.5 3.15 11.53 3.48 11.55 3.8 11.65 4.35ZM31.4 1.3L31.4 1.3Q29.55 1.3 28.4 0.33 27.25-0.65 27.25-2.3L27.25-2.3Q27.25-3.7 27.95-5.3 28.65-6.9 29.37-8.45 30.1-10 30.1-11.2L30.1-11.2Q30.1-12.35 29.35-13.13 28.6-13.9 27.6-14.4L27.6-14.4Q26.5-11.65 25.12-9.08 23.75-6.5 22.9-5.05L22.9-5.05 22.15-6.5Q22.85-7.8 24-10.2 25.15-12.6 26.2-15.55L26.2-15.55Q25.7-16.05 25.7-16.9L25.7-16.9Q25.7-18.2 26.5-19.35 27.3-20.5 28.05-20.5L28.05-20.5Q28.65-20.5 28.92-19.83 29.2-19.15 29.2-18.9L29.2-18.9Q29.2-18.65 28.97-18 28.75-17.35 28.65-17.05L28.65-17.05Q28.7-16.5 29.52-15.98 30.35-15.45 31.4-14.75 32.45-14.05 33.25-13 34.05-11.95 34.05-10.35L34.05-10.35Q34.05-8.9 33.4-7.4 32.75-5.9 32.1-4.6 31.45-3.3 31.45-2.35L31.45-2.35Q31.45-1.65 31.82-1.43 32.2-1.2 32.7-1.2L32.7-1.2Q33.9-1.2 35.2-1.93 36.5-2.65 37.75-3.8 39-4.95 39.95-6.23 40.9-7.5 41.4-8.55L41.4-8.55 42.6-7.65Q41.65-5.5 39.85-3.43 38.05-1.35 35.85-0.03 33.65 1.3 31.4 1.3ZM43.09 2.35L43.09 2.35Q41.45 2.35 40.22 1.25 39 0.15 39-2.05L39-2.05Q39-3.8 39.8-5.85 40.59-7.9 42-9.9 43.4-11.9 45.2-13.53 47-15.15 49.05-16.15 51.09-17.15 53.15-17.15L53.15-17.15Q55.3-17.15 56.8-16.05 58.3-14.95 58.3-13.15L58.3-13.15Q58.3-11.8 57.34-11.2 56.4-10.6 55.09-10.85L55.09-10.85Q55.2-11.3 55.27-11.75 55.34-12.2 55.34-12.7L55.34-12.7Q55.34-13.7 54.95-14.5 54.55-15.3 53.25-15.3L53.25-15.3Q51.84-15.3 50.4-14.35 48.95-13.4 47.62-11.88 46.3-10.35 45.25-8.53 44.2-6.7 43.59-4.95 43-3.2 43-1.8L43-1.8Q43-0.2 44.15-0.2L44.15-0.2Q45.3-0.2 46.7-1.33 48.09-2.45 49.52-4.15 50.95-5.85 52.25-7.63 53.55-9.4 54.5-10.65L54.5-10.65Q54.65-10.9 54.9-10.9L54.9-10.9Q55.09-10.85 55.67-10.68 56.25-10.5 56.75-10.15 57.25-9.8 57.25-9.25L57.25-9.25Q57.25-8.75 56.82-7.98 56.4-7.2 55.82-6.28 55.25-5.35 54.82-4.42 54.4-3.5 54.4-2.65L54.4-2.65Q54.4-2 54.75-1.43 55.09-0.85 55.9-0.85L55.9-0.85Q57.09-0.85 59.27-2.63 61.45-4.4 63.7-8.65L63.7-8.65 64.65-7.7Q63.45-5 61.77-2.93 60.09-0.85 58.25 0.33 56.4 1.5 54.5 1.5L54.5 1.5Q52.45 1.5 51.45 0.2 50.45-1.1 50.34-2.6L50.34-2.6Q50.34-2.7 50.34-2.75 50.34-2.8 50.34-2.85L50.34-2.85Q48.34-0.45 46.67 0.95 45 2.35 43.09 2.35ZM65.94 1.5L65.94 1.5Q64.99 1.5 64.02 1.03 63.04 0.55 62.37-0.45 61.69-1.45 61.69-3L61.69-3Q61.69-4.65 62.49-6.7 63.29-8.75 64.67-10.8 66.04-12.85 67.87-14.55 69.69-16.25 71.74-17.3 73.79-18.35 75.89-18.35L75.89-18.35Q77.04-18.35 77.69-17.98 78.34-17.6 78.34-16.75L78.34-16.75Q78.34-16.5 78.24-16.18 78.14-15.85 77.74-15.6L77.74-15.6Q77.54-15.9 77.04-16.03 76.54-16.15 75.99-16.15L75.99-16.15Q74.34-16.15 72.84-15.23 71.34-14.3 70.09-12.85 68.84-11.4 67.92-9.7 66.99-8 66.49-6.43 65.99-4.85 65.99-3.7L65.99-3.7Q65.99-2.75 66.39-2.18 66.79-1.6 67.59-1.6L67.59-1.6Q68.94-1.6 70.82-3.18 72.69-4.75 74.67-7.73 76.64-10.7 78.24-14.85L78.24-14.85Q79.34-17.7 80.54-20.68 81.74-23.65 82.94-26.4 84.14-29.15 85.32-31.3 86.49-33.45 87.57-34.73 88.64-36 89.54-36L89.54-36Q90.09-36 90.52-35.58 90.94-35.15 90.94-34.5L90.94-34.5Q90.94-33.65 90.12-31.78 89.29-29.9 88.02-27.3 86.74-24.7 85.27-21.68 83.79-18.65 82.52-15.48 81.24-12.3 80.42-9.22 79.59-6.15 79.59-3.45L79.59-3.45Q79.59-2.25 79.82-1.83 80.04-1.4 80.59-1.4L80.59-1.4Q81.69-1.4 83.04-2.25 84.39-3.1 85.79-4.78 87.19-6.45 88.34-8.8L88.34-8.8 89.29-8Q88.19-5.25 86.49-3.15 84.79-1.05 82.84 0.13 80.89 1.3 78.99 1.3L78.99 1.3Q76.94 1.3 76.14 0 75.34-1.3 75.34-3.05L75.34-3.05Q75.34-3.85 75.47-4.67 75.59-5.5 75.74-6.3L75.74-6.3Q74.19-4.05 72.47-2.27 70.74-0.5 69.09 0.5 67.44 1.5 65.94 1.5ZM91.04 1.5L91.04 1.5Q88.84 1.5 87.74 0.2 86.64-1.1 86.64-2.95L86.64-2.95Q86.64-4.1 87.04-5.85 87.44-7.6 88.17-9.53 88.89-11.45 89.84-13.15 90.79-14.85 91.89-15.93 92.99-17 94.09-17L94.09-17Q94.69-17 95.14-16.65 95.59-16.3 95.59-15.55L95.59-15.55Q95.59-14.9 94.82-13.6 94.04-12.3 93.02-10.6 91.99-8.9 91.22-7.08 90.44-5.25 90.44-3.6L90.44-3.6Q90.44-2 91.02-1.48 91.59-0.95 92.69-0.95L92.69-0.95Q94.39-0.95 96.39-2.65 98.39-4.35 100.54-8.6L100.54-8.6 101.29-7.8Q99.54-3.4 96.84-0.95 94.14 1.5 91.04 1.5ZM96.94-21.05L96.94-21.05Q95.99-21.05 95.22-21.53 94.44-22 94.44-23L94.44-23Q94.44-24.2 95.74-25.05 97.04-25.9 98.44-25.9L98.44-25.9Q99.34-25.9 99.97-25.5 100.59-25.1 100.59-24.05L100.59-24.05Q100.59-23 99.44-22.03 98.29-21.05 96.94-21.05ZM103.79 2.3L103.79 2.3Q101.59 2.3 100.24 1 98.89-0.3 98.89-2.95L98.89-2.95Q98.89-5 99.66-8.05 100.44-11.1 101.64-14.35L101.64-14.35Q101.29-14.45 100.81-14.53 100.34-14.6 99.89-14.8L99.89-14.8 99.89-16.35Q100.69-16.25 101.21-16.2 101.74-16.15 102.29-16.1L102.29-16.1Q103.34-18.75 104.56-21.23 105.79-23.7 107.01-25.65 108.24-27.6 109.34-28.73 110.44-29.85 111.29-29.85L111.29-29.85Q111.79-29.85 112.24-29.48 112.69-29.1 112.69-28.4L112.69-28.4Q112.69-27.4 111.66-25.55 110.64-23.7 109.14-21.23 107.64-18.75 106.24-15.95L106.24-15.95Q106.64-15.95 107.04-15.95 107.44-15.95 107.79-15.95L107.79-15.95Q109.99-15.95 111.76-16.03 113.54-16.1 115.39-16.3L115.39-16.3 115.39-14.65Q112.64-14.4 110.34-14.25 108.04-14.1 105.94-14.05L105.94-14.05Q105.79-14.05 105.64-14.05 105.49-14.05 105.34-14.05L105.34-14.05Q104.29-11.6 103.51-9.03 102.74-6.45 102.74-4L102.74-4Q102.74-1.95 103.39-1.1 104.04-0.25 105.44-0.25L105.44-0.25Q107.94-0.25 110.56-2.53 113.19-4.8 115.14-8.7L115.14-8.7 115.84-8.2Q114.54-5.25 112.61-2.85 110.69-0.45 108.44 0.93 106.19 2.3 103.79 2.3ZM117.64 1.5L117.64 1.5Q115.44 1.5 114.34 0.2 113.24-1.1 113.24-2.95L113.24-2.95Q113.24-4.1 113.64-5.85 114.04-7.6 114.76-9.53 115.49-11.45 116.44-13.15 117.39-14.85 118.49-15.93 119.59-17 120.69-17L120.69-17Q121.29-17 121.74-16.65 122.19-16.3 122.19-15.55L122.19-15.55Q122.19-14.9 121.41-13.6 120.64-12.3 119.61-10.6 118.59-8.9 117.81-7.08 117.04-5.25 117.04-3.6L117.04-3.6Q117.04-2 117.61-1.48 118.19-0.95 119.29-0.95L119.29-0.95Q120.99-0.95 122.99-2.65 124.99-4.35 127.14-8.6L127.14-8.6 127.89-7.8Q126.14-3.4 123.44-0.95 120.74 1.5 117.64 1.5ZM123.54-21.05L123.54-21.05Q122.59-21.05 121.81-21.53 121.04-22 121.04-23L121.04-23Q121.04-24.2 122.34-25.05 123.64-25.9 125.04-25.9L125.04-25.9Q125.94-25.9 126.56-25.5 127.19-25.1 127.19-24.05L127.19-24.05Q127.19-23 126.04-22.03 124.89-21.05 123.54-21.05ZM129.13 1.6L129.13 1.6Q126.88 1.6 126.06 0.13 125.23-1.35 125.23-3.1L125.23-3.1Q125.23-4.7 125.73-6.38 126.23-8.05 127.11-9.5 127.98-10.95 129.06-11.83 130.13-12.7 131.23-12.7L131.23-12.7Q131.58-12.7 132.06-12.58 132.53-12.45 132.73-12.2L132.73-12.2Q132.13-11.45 131.51-10.35 130.88-9.25 130.36-8.03 129.83-6.8 129.53-5.55 129.23-4.3 129.23-3.25L129.23-3.25Q129.23-2.25 129.61-1.6 129.98-0.95 130.93-0.95L130.93-0.95Q131.88-0.95 133.21-2.02 134.53-3.1 135.73-4.5L135.73-4.5Q134.13-5.95 133.43-7.68 132.73-9.4 132.73-11.85L132.73-11.85Q132.73-12.9 133.26-14.25 133.78-15.6 134.96-16.6 136.13-17.6 138.13-17.6L138.13-17.6Q140.28-17.6 141.16-16.4 142.03-15.2 142.03-13.55L142.03-13.55Q142.03-11.7 141.06-9.4 140.08-7.1 138.73-5.05L138.73-5.05Q139.33-4.75 140.13-4.75L140.13-4.75Q140.88-4.75 141.93-5.1 142.98-5.45 143.98-6.28 144.98-7.1 145.58-8.5L145.58-8.5 146.48-7.85Q145.38-5.3 143.56-4.13 141.73-2.95 139.98-2.95L139.98-2.95Q139.33-2.95 138.68-3.08 138.03-3.2 137.48-3.4L137.48-3.4Q135.78-1.4 133.58 0.1 131.38 1.6 129.13 1.6ZM137.03-6.1L137.03-6.1Q138.23-7.85 139.08-9.85 139.93-11.85 139.93-13.55L139.93-13.55Q139.93-14.7 139.58-15.23 139.23-15.75 138.53-15.75L138.53-15.75Q137.58-15.75 136.58-14.4 135.58-13.05 135.58-11L135.58-11Q135.58-9.95 135.96-8.45 136.33-6.95 137.03-6.1ZM161.28 1L161.28 1Q159.33 1 158.31 0.03 157.28-0.95 157.28-2.45L157.28-2.45Q157.28-3.45 157.63-4.58 157.98-5.7 158.33-6.85 158.68-8 158.68-9.05L158.68-9.05Q158.68-10.15 158.16-10.58 157.63-11 156.93-11L156.93-11Q155.43-11 153.86-9.78 152.28-8.55 150.81-6.7 149.33-4.85 148.03-2.85 146.73-0.85 145.78 0.75L145.78 0.75Q144.83 0.75 143.98 0.43 143.13 0.1 142.53-0.7L142.53-0.7Q142.58-0.95 143.11-2.23 143.63-3.5 144.28-5.28 144.93-7.05 145.43-9 145.93-10.95 145.93-12.55L145.93-12.55Q146.28-12.95 147.01-13.35 147.73-13.75 148.53-13.75L148.53-13.75Q150.28-13.75 150.28-12.25L150.28-12.25Q150.28-11.65 150.06-10.48 149.83-9.3 149.43-7.8L149.43-7.8Q150.73-9.55 152.28-11.1 153.83-12.65 155.51-13.63 157.18-14.6 158.88-14.6L158.88-14.6Q161.03-14.6 162.06-13.15 163.08-11.7 163.08-9.95L163.08-9.95Q163.08-8.45 162.58-7.15 162.08-5.85 161.61-4.7 161.13-3.55 161.13-2.45L161.13-2.45Q161.13-1.65 161.51-1.33 161.88-1 162.33-1L162.33-1Q163.53-1 164.83-2.15 166.13-3.3 167.31-5.08 168.48-6.85 169.38-8.65L169.38-8.65 170.23-7.95Q169.18-5.5 167.86-3.48 166.53-1.45 164.91-0.23 163.28 1 161.28 1ZM170.88 2.35L170.88 2.35Q169.23 2.35 168 1.25 166.78 0.15 166.78-2.05L166.78-2.05Q166.78-3.8 167.58-5.85 168.38-7.9 169.78-9.9 171.18-11.9 172.98-13.53 174.78-15.15 176.83-16.15 178.88-17.15 180.93-17.15L180.93-17.15Q183.08-17.15 184.58-16.05 186.08-14.95 186.08-13.15L186.08-13.15Q186.08-11.8 185.13-11.2 184.18-10.6 182.88-10.85L182.88-10.85Q182.98-11.3 183.05-11.75 183.13-12.2 183.13-12.7L183.13-12.7Q183.13-13.7 182.73-14.5 182.33-15.3 181.03-15.3L181.03-15.3Q179.63-15.3 178.18-14.35 176.73-13.4 175.4-11.88 174.08-10.35 173.03-8.53 171.98-6.7 171.38-4.95 170.78-3.2 170.78-1.8L170.78-1.8Q170.78-0.2 171.93-0.2L171.93-0.2Q173.08-0.2 174.48-1.33 175.88-2.45 177.3-4.15 178.73-5.85 180.03-7.63 181.33-9.4 182.28-10.65L182.28-10.65Q182.43-10.9 182.68-10.9L182.68-10.9Q182.88-10.85 183.45-10.68 184.03-10.5 184.53-10.15 185.03-9.8 185.03-9.25L185.03-9.25Q185.03-8.75 184.6-7.98 184.18-7.2 183.6-6.28 183.03-5.35 182.6-4.42 182.18-3.5 182.18-2.65L182.18-2.65Q182.18-2 182.53-1.43 182.88-0.85 183.68-0.85L183.68-0.85Q184.88-0.85 187.05-2.63 189.23-4.4 191.48-8.65L191.48-8.65 192.43-7.7Q191.23-5 189.55-2.93 187.88-0.85 186.03 0.33 184.18 1.5 182.28 1.5L182.28 1.5Q180.23 1.5 179.23 0.2 178.23-1.1 178.13-2.6L178.13-2.6Q178.13-2.7 178.13-2.75 178.13-2.8 178.13-2.85L178.13-2.85Q176.13-0.45 174.45 0.95 172.78 2.35 170.88 2.35ZM194.58 1.5L194.58 1.5Q192.23 1.5 191.3-0.08 190.38-1.65 190.38-3.8L190.38-3.8Q190.38-6.25 191.28-9.55 192.18-12.85 193.65-16.48 195.13-20.1 196.9-23.58 198.68-27.05 200.48-29.85 202.28-32.65 203.8-34.33 205.33-36 206.28-36L206.28-36Q206.93-36 207.38-35.33 207.83-34.65 208.1-33.73 208.38-32.8 208.38-32L208.38-32Q208.38-30.65 207.7-28.48 207.03-26.3 205.8-23.7 204.58-21.1 202.9-18.38 201.23-15.65 199.2-13.2 197.18-10.75 194.88-8.95L194.88-8.95Q194.68-7.7 194.5-6.48 194.33-5.25 194.33-4.25L194.33-4.25Q194.33-2.45 194.93-1.63 195.53-0.8 196.48-0.8L196.48-0.8Q197.73-0.8 199.05-1.98 200.38-3.15 201.6-4.98 202.83-6.8 203.73-8.75L203.73-8.75 204.93-8.1Q202.78-3.65 200.13-1.07 197.48 1.5 194.58 1.5ZM195.78-12.05L195.78-12.05Q197.48-13.9 199-16.07 200.53-18.25 201.8-20.5 203.08-22.75 204.03-24.85 204.98-26.95 205.5-28.63 206.03-30.3 206.08-31.3L206.08-31.3Q206.08-31.35 206.08-31.38 206.08-31.4 206.08-31.45L206.08-31.45Q205.68-31.45 204.8-30.33 203.93-29.2 202.73-27.25 201.53-25.3 200.25-22.8 198.98-20.3 197.8-17.53 196.63-14.75 195.78-12.05ZM221.37 4.35L221.37 4.35Q219.87 4.35 218.55 3.55 217.22 2.75 217.22 1.5L217.22 1.5Q217.22 0.85 217.45 0.1 217.67-0.65 217.87-1.3L217.87-1.3Q219.42-6.05 220.77-10.18 222.12-14.3 223.5-18.13 224.87-21.95 226.4-25.8 227.92-29.65 229.82-33.85L229.82-33.85Q227.92-33.45 226.57-32.83 225.22-32.2 224.37-31.73 223.52-31.25 223.12-31.25L223.12-31.25Q222.87-31.25 222.4-31.6 221.92-31.95 221.57-32.4 221.22-32.85 221.22-33.2L221.22-33.2Q222.62-33.8 224.5-34.45 226.37-35.1 228.57-35.55 230.77-36 232.97-36L232.97-36Q235.32-36 237.77-35.38 240.22-34.75 242.3-33.52 244.37-32.3 245.65-30.48 246.92-28.65 246.92-26.2L246.92-26.2Q246.92-23.55 245.72-21.65 244.52-19.75 242.55-18.45 240.57-17.15 238.27-16.35 235.97-15.55 233.7-15.15 231.42-14.75 229.62-14.6 227.82-14.45 226.92-14.45L226.92-14.45 226.62-14.45Q225.22-9.5 223.87-4.58 222.52 0.35 221.37 4.35ZM227.07-16L227.07-16Q229.87-16.2 232.67-16.95 235.47-17.7 237.75-19.03 240.02-20.35 241.4-22.35 242.77-24.35 242.77-27L242.77-27Q242.77-29.5 241.45-31.05 240.12-32.6 238.05-33.4 235.97-34.2 233.67-34.25L233.67-34.25Q231.87-30.75 230.22-25.98 228.57-21.2 227.07-16ZM243.47 1.6L243.47 1.6Q241.22 1.6 240.39 0.13 239.57-1.35 239.57-3.1L239.57-3.1Q239.57-4.7 240.07-6.38 240.57-8.05 241.44-9.5 242.32-10.95 243.39-11.83 244.47-12.7 245.57-12.7L245.57-12.7Q245.92-12.7 246.39-12.58 246.87-12.45 247.07-12.2L247.07-12.2Q246.47-11.45 245.84-10.35 245.22-9.25 244.69-8.03 244.17-6.8 243.87-5.55 243.57-4.3 243.57-3.25L243.57-3.25Q243.57-2.25 243.94-1.6 244.32-0.95 245.27-0.95L245.27-0.95Q246.22-0.95 247.54-2.02 248.87-3.1 250.07-4.5L250.07-4.5Q248.47-5.95 247.77-7.68 247.07-9.4 247.07-11.85L247.07-11.85Q247.07-12.9 247.59-14.25 248.12-15.6 249.29-16.6 250.47-17.6 252.47-17.6L252.47-17.6Q254.62-17.6 255.49-16.4 256.37-15.2 256.37-13.55L256.37-13.55Q256.37-11.7 255.39-9.4 254.42-7.1 253.07-5.05L253.07-5.05Q253.67-4.75 254.47-4.75L254.47-4.75Q255.22-4.75 256.27-5.1 257.32-5.45 258.32-6.28 259.32-7.1 259.92-8.5L259.92-8.5 260.82-7.85Q259.72-5.3 257.89-4.13 256.07-2.95 254.32-2.95L254.32-2.95Q253.67-2.95 253.02-3.08 252.37-3.2 251.82-3.4L251.82-3.4Q250.12-1.4 247.92 0.1 245.72 1.6 243.47 1.6ZM251.37-6.1L251.37-6.1Q252.57-7.85 253.42-9.85 254.27-11.85 254.27-13.55L254.27-13.55Q254.27-14.7 253.92-15.23 253.57-15.75 252.87-15.75L252.87-15.75Q251.92-15.75 250.92-14.4 249.92-13.05 249.92-11L249.92-11Q249.92-9.95 250.29-8.45 250.67-6.95 251.37-6.1ZM263.07 1.5L263.07 1.5Q260.72 1.5 259.79-0.08 258.87-1.65 258.87-3.8L258.87-3.8Q258.87-6.25 259.77-9.55 260.67-12.85 262.14-16.48 263.62-20.1 265.39-23.58 267.17-27.05 268.97-29.85 270.77-32.65 272.29-34.33 273.82-36 274.77-36L274.77-36Q275.42-36 275.87-35.33 276.32-34.65 276.59-33.73 276.87-32.8 276.87-32L276.87-32Q276.87-30.65 276.19-28.48 275.52-26.3 274.29-23.7 273.07-21.1 271.39-18.38 269.72-15.65 267.69-13.2 265.67-10.75 263.37-8.95L263.37-8.95Q263.17-7.7 262.99-6.48 262.82-5.25 262.82-4.25L262.82-4.25Q262.82-2.45 263.42-1.63 264.02-0.8 264.97-0.8L264.97-0.8Q266.22-0.8 267.54-1.98 268.87-3.15 270.09-4.98 271.32-6.8 272.22-8.75L272.22-8.75 273.42-8.1Q271.27-3.65 268.62-1.07 265.97 1.5 263.07 1.5ZM264.27-12.05L264.27-12.05Q265.97-13.9 267.49-16.07 269.02-18.25 270.29-20.5 271.57-22.75 272.52-24.85 273.47-26.95 273.99-28.63 274.52-30.3 274.57-31.3L274.57-31.3Q274.57-31.35 274.57-31.38 274.57-31.4 274.57-31.45L274.57-31.45Q274.17-31.45 273.29-30.33 272.42-29.2 271.22-27.25 270.02-25.3 268.74-22.8 267.47-20.3 266.29-17.53 265.12-14.75 264.27-12.05ZM275.01 1.5L275.01 1.5Q272.81 1.5 271.71 0.2 270.61-1.1 270.61-2.95L270.61-2.95Q270.61-4.1 271.01-5.85 271.41-7.6 272.14-9.53 272.86-11.45 273.81-13.15 274.76-14.85 275.86-15.93 276.96-17 278.06-17L278.06-17Q278.66-17 279.11-16.65 279.56-16.3 279.56-15.55L279.56-15.55Q279.56-14.9 278.79-13.6 278.01-12.3 276.99-10.6 275.96-8.9 275.19-7.08 274.41-5.25 274.41-3.6L274.41-3.6Q274.41-2 274.99-1.48 275.56-0.95 276.66-0.95L276.66-0.95Q278.36-0.95 280.36-2.65 282.36-4.35 284.51-8.6L284.51-8.6 285.26-7.8Q283.51-3.4 280.81-0.95 278.11 1.5 275.01 1.5ZM280.91-21.05L280.91-21.05Q279.96-21.05 279.19-21.53 278.41-22 278.41-23L278.41-23Q278.41-24.2 279.71-25.05 281.01-25.9 282.41-25.9L282.41-25.9Q283.31-25.9 283.94-25.5 284.56-25.1 284.56-24.05L284.56-24.05Q284.56-23 283.41-22.03 282.26-21.05 280.91-21.05ZM289.06 2.55L289.06 2.55Q286.56 2.55 285.04 1.53 283.51 0.5 282.86-1.07 282.21-2.65 282.21-4.3L282.21-4.3Q282.21-5.75 282.61-6.55 283.01-7.35 283.61-7.73 284.21-8.1 284.74-8.3 285.26-8.5 285.51-8.75L285.51-8.75Q286.76-10.05 288.09-11.78 289.41-13.5 290.36-15.6L290.36-15.6 290.36-16.1Q290.36-18.1 291.04-18.93 291.71-19.75 292.61-19.75L292.61-19.75Q293.21-19.75 293.49-19.45 293.76-19.15 293.81-18.75L293.81-18.75Q293.81-18.45 293.69-18.05 293.56-17.65 293.56-16.95L293.56-16.95Q293.56-15.45 294.29-13.53 295.01-11.6 295.74-9.45 296.46-7.3 296.46-5.05L296.46-5.05Q296.46-4.45 296.41-3.95 296.36-3.45 296.26-3L296.26-3Q297.81-3.4 299.31-4.73 300.81-6.05 302.16-8.65L302.16-8.65 302.76-8.2Q301.81-5.35 300.01-3.63 298.21-1.9 295.81-1.5L295.81-1.5Q295.01 0.55 293.19 1.55 291.36 2.55 289.06 2.55ZM288.71 0.35L288.71 0.35Q289.71 0.35 290.56-0.15 291.41-0.65 291.91-1.6L291.91-1.6Q289.86-2.05 288.21-3.2 286.56-4.35 285.66-5.55L285.66-5.55Q284.96-5.4 284.96-4.2L284.96-4.2Q284.96-2.55 285.91-1.1 286.86 0.35 288.71 0.35ZM292.31-3.1L292.31-3.1Q292.41-3.45 292.44-3.93 292.46-4.4 292.46-4.65L292.46-4.65Q292.41-6.9 291.86-9.1 291.31-11.3 290.76-13.6L290.76-13.6Q289.86-12.05 288.66-10.25 287.46-8.45 286.41-7.35L286.41-7.35Q287.21-6 288.76-4.8 290.31-3.6 292.31-3.1ZM303.06 1.9L303.06 1.9Q301.96 1.9 301.48 0.2 301.01-1.5 301.01-3.75L301.01-3.75Q301.01-6.05 301.78-9.3 302.56-12.55 303.88-16.15 305.21-19.75 306.83-23.2 308.46-26.65 310.18-29.48 311.91-32.3 313.48-34 315.06-35.7 316.26-35.7L316.26-35.7Q317.31-35.7 317.86-34.55 318.41-33.4 318.41-32.15L318.41-32.15Q318.41-30.8 317.78-28.83 317.16-26.85 316.06-24.6 314.96-22.35 313.48-20.18 312.01-18 310.28-16.2 308.56-14.4 306.71-13.3L306.71-13.3Q306.06-11.6 305.68-10.13 305.31-8.65 305.16-7.35 305.01-6.05 305.01-4.8L305.01-4.8Q305.01-4.55 305.03-4.28 305.06-4 305.06-3.75L305.06-3.75Q305.26-4.05 305.71-5.3 306.16-6.55 306.93-8.22 307.71-9.9 308.86-11.53 310.01-13.15 311.56-14.23 313.11-15.3 315.11-15.3L315.11-15.3Q316.81-15.3 317.76-14.53 318.71-13.75 319.11-12.63 319.51-11.5 319.51-10.35L319.51-10.35Q319.51-8.75 318.98-7.35 318.46-5.95 317.93-4.73 317.41-3.5 317.41-2.4L317.41-2.4Q317.41-1.5 317.81-1.15 318.21-0.8 318.76-0.8L318.76-0.8Q319.86-0.8 321.33-1.9 322.81-3 324.28-4.83 325.76-6.65 326.81-8.85L326.81-8.85 327.61-8Q326.46-5.5 324.91-3.4 323.36-1.3 321.51-0.05 319.66 1.2 317.51 1.2L317.51 1.2Q315.61 1.2 314.61 0.2 313.61-0.8 313.61-2.3L313.61-2.3Q313.61-3.35 313.98-4.63 314.36-5.9 314.71-7.2 315.06-8.5 315.06-9.55L315.06-9.55Q315.06-10.75 314.53-11.2 314.01-11.65 313.26-11.65L313.26-11.65Q312.01-11.65 311.01-10.68 310.01-9.7 309.21-8.15 308.41-6.6 307.71-4.88 307.01-3.15 306.31-1.6 305.61-0.05 304.83 0.93 304.06 1.9 303.06 1.9ZM307.76-16.5L307.76-16.5Q309.06-17.65 310.26-19.25 311.46-20.85 312.48-22.58 313.51-24.3 314.28-25.93 315.06-27.55 315.51-28.85 315.96-30.15 316.01-30.85L316.01-30.85Q316.01-30.9 316.01-30.93 316.01-30.95 316.01-31L316.01-31Q315.71-31 314.73-29.78 313.76-28.55 312.48-26.48 311.21-24.4 309.93-21.8 308.66-19.2 307.76-16.5ZM350.95 4.35L350.95 4.35Q347.15 4.35 344.73 2.55 342.3 0.75 341.18-2.1 340.05-4.95 340.05-8L340.05-8Q340.05-11.95 341.25-15.93 342.45-19.9 344.58-23.5 346.7-27.1 349.4-29.9 352.1-32.7 355.18-34.33 358.25-35.95 361.3-35.95L361.3-35.95Q363.5-35.95 365-34.93 366.5-33.9 366.5-31.4L366.5-31.4Q366.5-29.9 365.98-28.05 365.45-26.2 364.58-24.48 363.7-22.75 362.6-21.65 361.5-20.55 360.35-20.55L360.35-20.55Q359.85-20.55 359.3-20.9 358.75-21.25 358.3-22.1L358.3-22.1Q359.05-22.95 360-24.18 360.95-25.4 361.8-26.78 362.65-28.15 363.2-29.48 363.75-30.8 363.75-31.8L363.75-31.8Q363.75-32.7 363.25-33.23 362.75-33.75 361.5-33.75L361.5-33.75Q359.3-33.75 356.98-32.1 354.65-30.45 352.5-27.68 350.35-24.9 348.63-21.48 346.9-18.05 345.9-14.43 344.9-10.8 344.9-7.55L344.9-7.55Q344.9-5.15 345.63-2.98 346.35-0.8 347.95 0.58 349.55 1.95 352.15 1.95L352.15 1.95Q354.85 1.95 357.53 0.45 360.2-1.05 362.43-3.5 364.65-5.95 366-8.75L366-8.75 367.3-7.9Q365.55-4.55 363.1-1.78 360.65 1 357.58 2.68 354.5 4.35 350.95 4.35ZM368.6 1.5L368.6 1.5Q366.9 1.5 365.83-0.08 364.75-1.65 364.75-3.7L364.75-3.7Q364.75-5.1 365.2-7 365.65-8.9 366.38-10.7 367.1-12.5 367.88-13.7 368.65-14.9 369.3-14.9L369.3-14.9Q369.65-14.9 370.38-14.53 371.1-14.15 371.65-13.6L371.65-13.6Q371.1-12.8 370.33-11.15 369.55-9.5 368.95-7.6 368.35-5.7 368.35-4.15L368.35-4.15Q368.35-3.95 368.43-3.2 368.5-2.45 368.8-1.8 369.1-1.15 369.85-1.15L369.85-1.15Q370.7-1.15 371.68-2.08 372.65-3 373.68-4.48 374.7-5.95 375.68-7.65 376.65-9.35 377.43-10.95 378.2-12.55 378.7-13.65L378.7-13.65Q379.15-13.6 379.88-13.4 380.6-13.2 381.15-12.88 381.7-12.55 381.7-11.95L381.7-11.95Q381.7-11.8 381.23-10.73 380.75-9.65 380.13-8.15 379.5-6.65 379.03-5.08 378.55-3.5 378.55-2.3L378.55-2.3Q378.55-1.6 378.83-1.07 379.1-0.55 379.9-0.55L379.9-0.55Q380.95-0.55 382.4-1.5 383.85-2.45 385.4-4.25 386.95-6.05 388.15-8.55L388.15-8.55 388.9-7.95Q387.8-5.25 386.05-3.1 384.3-0.95 382.3 0.28 380.3 1.5 378.4 1.5L378.4 1.5Q376.95 1.5 376.23 0.83 375.5 0.15 375.25-0.93 375-2 374.95-3.1L374.95-3.1Q374.95-3.35 374.95-3.63 374.95-3.9 374.95-4.1L374.95-4.1Q374.1-2.75 373.1-1.48 372.1-0.2 370.98 0.65 369.85 1.5 368.6 1.5ZM390.85 1.5L390.85 1.5Q388.65 1.5 387.55 0.2 386.45-1.1 386.45-2.95L386.45-2.95Q386.45-4.1 386.85-5.85 387.25-7.6 387.97-9.53 388.7-11.45 389.65-13.15 390.6-14.85 391.7-15.93 392.8-17 393.9-17L393.9-17Q394.5-17 394.95-16.65 395.4-16.3 395.4-15.55L395.4-15.55Q395.4-14.9 394.62-13.6 393.85-12.3 392.82-10.6 391.8-8.9 391.02-7.08 390.25-5.25 390.25-3.6L390.25-3.6Q390.25-2 390.82-1.48 391.4-0.95 392.5-0.95L392.5-0.95Q394.2-0.95 396.2-2.65 398.2-4.35 400.35-8.6L400.35-8.6 401.1-7.8Q399.35-3.4 396.65-0.95 393.95 1.5 390.85 1.5ZM396.75-21.05L396.75-21.05Q395.8-21.05 395.02-21.53 394.25-22 394.25-23L394.25-23Q394.25-24.2 395.55-25.05 396.85-25.9 398.25-25.9L398.25-25.9Q399.15-25.9 399.77-25.5 400.4-25.1 400.4-24.05L400.4-24.05Q400.4-23 399.25-22.03 398.1-21.05 396.75-21.05ZM404.9 2.55L404.9 2.55Q402.4 2.55 400.87 1.53 399.35 0.5 398.7-1.07 398.05-2.65 398.05-4.3L398.05-4.3Q398.05-5.75 398.45-6.55 398.85-7.35 399.45-7.73 400.05-8.1 400.57-8.3 401.1-8.5 401.35-8.75L401.35-8.75Q402.6-10.05 403.92-11.78 405.25-13.5 406.2-15.6L406.2-15.6 406.2-16.1Q406.2-18.1 406.87-18.93 407.55-19.75 408.45-19.75L408.45-19.75Q409.05-19.75 409.32-19.45 409.6-19.15 409.65-18.75L409.65-18.75Q409.65-18.45 409.52-18.05 409.4-17.65 409.4-16.95L409.4-16.95Q409.4-15.45 410.12-13.53 410.85-11.6 411.57-9.45 412.3-7.3 412.3-5.05L412.3-5.05Q412.3-4.45 412.25-3.95 412.2-3.45 412.1-3L412.1-3Q413.65-3.4 415.15-4.73 416.65-6.05 418-8.65L418-8.65 418.6-8.2Q417.65-5.35 415.85-3.63 414.05-1.9 411.65-1.5L411.65-1.5Q410.85 0.55 409.02 1.55 407.2 2.55 404.9 2.55ZM404.55 0.35L404.55 0.35Q405.55 0.35 406.4-0.15 407.25-0.65 407.75-1.6L407.75-1.6Q405.7-2.05 404.05-3.2 402.4-4.35 401.5-5.55L401.5-5.55Q400.8-5.4 400.8-4.2L400.8-4.2Q400.8-2.55 401.75-1.1 402.7 0.35 404.55 0.35ZM408.15-3.1L408.15-3.1Q408.25-3.45 408.27-3.93 408.3-4.4 408.3-4.65L408.3-4.65Q408.25-6.9 407.7-9.1 407.15-11.3 406.6-13.6L406.6-13.6Q405.7-12.05 404.5-10.25 403.3-8.45 402.25-7.35L402.25-7.35Q403.05-6 404.6-4.8 406.15-3.6 408.15-3.1ZM420.59 1.5L420.59 1.5Q418.39 1.5 417.29 0.2 416.19-1.1 416.19-2.95L416.19-2.95Q416.19-4.1 416.59-5.85 416.99-7.6 417.72-9.53 418.44-11.45 419.39-13.15 420.34-14.85 421.44-15.93 422.54-17 423.64-17L423.64-17Q424.24-17 424.69-16.65 425.14-16.3 425.14-15.55L425.14-15.55Q425.14-14.9 424.37-13.6 423.59-12.3 422.57-10.6 421.54-8.9 420.77-7.08 419.99-5.25 419.99-3.6L419.99-3.6Q419.99-2 420.57-1.48 421.14-0.95 422.24-0.95L422.24-0.95Q423.94-0.95 425.94-2.65 427.94-4.35 430.09-8.6L430.09-8.6 430.84-7.8Q429.09-3.4 426.39-0.95 423.69 1.5 420.59 1.5ZM426.49-21.05L426.49-21.05Q425.54-21.05 424.77-21.53 423.99-22 423.99-23L423.99-23Q423.99-24.2 425.29-25.05 426.59-25.9 427.99-25.9L427.99-25.9Q428.89-25.9 429.52-25.5 430.14-25.1 430.14-24.05L430.14-24.05Q430.14-23 428.99-22.03 427.84-21.05 426.49-21.05ZM445.64 1L445.64 1Q443.69 1 442.67 0.03 441.64-0.95 441.64-2.45L441.64-2.45Q441.64-3.45 441.99-4.58 442.34-5.7 442.69-6.85 443.04-8 443.04-9.05L443.04-9.05Q443.04-10.15 442.52-10.58 441.99-11 441.29-11L441.29-11Q439.79-11 438.22-9.78 436.64-8.55 435.17-6.7 433.69-4.85 432.39-2.85 431.09-0.85 430.14 0.75L430.14 0.75Q429.19 0.75 428.34 0.43 427.49 0.1 426.89-0.7L426.89-0.7Q426.94-0.95 427.47-2.23 427.99-3.5 428.64-5.28 429.29-7.05 429.79-9 430.29-10.95 430.29-12.55L430.29-12.55Q430.64-12.95 431.37-13.35 432.09-13.75 432.89-13.75L432.89-13.75Q434.64-13.75 434.64-12.25L434.64-12.25Q434.64-11.65 434.42-10.48 434.19-9.3 433.79-7.8L433.79-7.8Q435.09-9.55 436.64-11.1 438.19-12.65 439.87-13.63 441.54-14.6 443.24-14.6L443.24-14.6Q445.39-14.6 446.42-13.15 447.44-11.7 447.44-9.95L447.44-9.95Q447.44-8.45 446.94-7.15 446.44-5.85 445.97-4.7 445.49-3.55 445.49-2.45L445.49-2.45Q445.49-1.65 445.87-1.33 446.24-1 446.69-1L446.69-1Q447.89-1 449.19-2.15 450.49-3.3 451.67-5.08 452.84-6.85 453.74-8.65L453.74-8.65 454.59-7.95Q453.54-5.5 452.22-3.48 450.89-1.45 449.27-0.23 447.64 1 445.64 1ZM458.24 2.2L458.24 2.2Q455.04 2.2 453.31 0.48 451.59-1.25 451.59-3.85L451.59-3.85Q451.59-6.05 452.71-8.53 453.84-11 455.74-13.18 457.64-15.35 459.94-16.7 462.24-18.05 464.54-18.05L464.54-18.05Q465.84-18.05 467.01-17.38 468.19-16.7 468.19-14.7L468.19-14.7Q468.19-12.8 467.09-11.15 465.99-9.5 464.14-8.2 462.29-6.9 460.06-6.08 457.84-5.25 455.59-5L455.59-5Q455.54-4.8 455.51-4.58 455.49-4.35 455.49-3.85L455.49-3.85Q455.49-3.6 455.56-2.98 455.64-2.35 455.99-1.65 456.34-0.95 457.14-0.45 457.94 0.05 459.34 0.05L459.34 0.05Q461.44 0.05 463.56-1.13 465.69-2.3 467.56-4.25 469.44-6.2 470.69-8.6L470.69-8.6 471.69-7.8Q470.34-4.8 468.21-2.55 466.09-0.3 463.51 0.95 460.94 2.2 458.24 2.2ZM456.14-6.85L456.14-6.85Q457.44-7 459.04-7.75 460.64-8.5 462.11-9.65 463.59-10.8 464.54-12.18 465.49-13.55 465.49-14.95L465.49-14.95Q465.49-15.5 465.29-15.7 465.09-15.9 464.64-15.9L464.64-15.9Q463.49-15.9 462.24-15.08 460.99-14.25 459.79-12.93 458.59-11.6 457.64-10 456.69-8.4 456.14-6.85Z" opacity="1" transform="matrix(1,0,0,1,0,0)" fill="#bb6b32" class="undefined-text-1" data-fill-palette-color="secondary" id="text-1"></path></svg></g></svg></g></svg></g></svg></g></svg></g><defs></defs></svg><rect width="395.52" height="123.48754658055381" fill="none" stroke="none" visibility="hidden"></rect></g></svg></g></svg>